# AST/ASF file generated using VICON BodyLanguage
# -----------------------------------------------
:version 1.10
:name VICON
:units
  mass 1.0
  length 0.45
  angle deg
:documentation
   .ast/.asf automatically generated from VICON data using
   VICON BodyBuilder and BodyLanguage model FoxedUp or BRILLIANT.MOD
:root
   order TX TY TZ RX RY RZ
   axis XYZ
   position 0 0 0  
   orientation 0 0 0 
:bonedata
  begin
     id 1 
     name lhipjoint
     direction 0.589753 -0.68606 0.426044 
     length 2.54082 
     axis 0 0 0  XYZ
  end
  begin
     id 2 
     name lfemur
     direction 0.34202 -0.939693 0  
     length 7.04539  
     axis 0 0 20  XYZ
    dof rx ry rz
    limits (-160.0 20.0)
           (-70.0 70.0)
           (-60.0 70.0)
  end
  begin
     id 3 
     name ltibia
     direction 0.34202 -0.939693 0   
     length 7.83772   
     axis 0 0 20   XYZ
    dof rx
    limits (-10.0 170.0)
  end
  begin
     id 4 
     name lfoot
     direction 0.0596604 -0.163915 0.984669   
     length 2.39542   
     axis -90 7.62852e-016 20   XYZ
    dof rx rz
    limits (-45.0 90.0)
           (-70.0 20.0)
  end
  begin
     id 5 
     name ltoes
     direction 1.53514e-011 -4.21954e-011 1   
     length 1.2047   
     axis -90 7.62852e-016 20   XYZ
    dof rx
    limits (-90.0 20.0)
  end
  begin
     id 6 
     name rhipjoint
     direction -0.580585 -0.69168 0.429534   
     length 2.52018  
     axis 0 0 0  XYZ 
  end
  begin
     id 7 
     name rfemur
     direction -0.34202 -0.939693 0   
     length 7.0101   
     axis 0 0 -20   XYZ
    dof rx ry rz
    limits (-160.0 20.0)
           (-70.0 70.0)
           (-70.0 60.0)
  end
  begin
     id 8 
     name rtibia
     direction -0.34202 -0.939693 0   
     length 7.70628   
     axis 0 0 -20   XYZ
    dof rx
    limits (-10.0 170.0)
 end
 begin
     id 9 
     name rfoot
     direction -0.0696237 -0.19129 0.979061   
     length 2.52466  
     axis -90 -7.62852e-016 -20   XYZ
    dof rx rz
    limits (-45.0 90.0)
           (-20.0 70.0)
  end
  begin
     id 10 
     name rtoes
     direction -1.53519e-011 -4.21793e-011 1   
     length 1.266   
     axis -90 -7.62852e-016 -20   XYZ
    dof rx
    limits (-90.0 20.0)
  end
  begin
     id 11 
     name lowerback
     direction 0.00381965 0.995707 -0.0924856   
     length 2.20825   
     axis 0 0 0   XYZ
    dof rx ry rz
    limits (-20.0 45.0)
           (-30.0 30.0)
           (-30.0 30.0)
  end
  begin
     id 12 
     name upperback
     direction -0.0139043 0.999634 -0.0231929   
     length 2.21517   
     axis 0 0 0   XYZ
    dof rx ry rz
    limits (-20.0 45.0)
           (-30.0 30.0)
           (-30.0 30.0)
  end
  begin
     id 13 
     name thorax
     direction -0.0143933 0.999691 0.0202892   
     length 2.22911   
     axis 0 0 0   XYZ
    dof rx ry rz
    limits (-20.0 45.0)
           (-30.0 30.0)
           (-30.0 30.0)
  end
  begin
     id 14 
     name lowerneck
     direction -0.0251153 0.981819 0.188153   
     length 1.61782   
     axis 0 0 0   XYZ
    dof rx ry rz
    limits (-20.0 45.0)
           (-30.0 30.0)
           (-30.0 30.0)
  end
  begin
     id 15 
     name upperneck
     direction 0.0563891 0.969357 -0.239095   
     length 1.64526   
     axis 0 0 0   XYZ
    dof rx ry rz
    limits (-20.0 45.0)
           (-30.0 30.0)
           (-30.0 30.0)
  end
  begin
     id 16
     name head
     direction 0.0208328 0.99459 -0.101773  
     length 1.67436  
     axis 0 0 0   XYZ
    dof rx ry rz
    limits (-20.0 45.0)
           (-30.0 30.0)
           (-30.0 30.0)
  end
  begin
     id 17 
     name lclavicle
     direction 0.917689 0.397224 0.00772059  
     length 3.31102  
     axis 0 0 0   XYZ
    dof ry rz
    limits (-20.0 10.0)
           (0.0 20.0)
  end
  begin
     id 18 
     name lhumerus
     direction 1 -4.4896e-011 2.32308e-027   
     length 5.25537   
     axis 180 -30 -90   XYZ
    dof rx ry rz
    limits (-60.0 90.0)
           (-90.0 90.0)
           (-90.0 90.0)
  end
  begin
     id 19
     name lradius
     direction 1 -4.49005e-011 -2.04271e-027   
     length 3.38855   
     axis 180 -30 -90   XYZ
    dof rx
    limits (-10.0 170.0)
  end
  begin
     id 20
     name lwrist
     direction 1 -4.48892e-011 2.56952e-028   
     length 1.69428   
     axis -5.12785e-016 90 90   XYZ
    dof ry
    limits (-180.0 0.0)
 end
  begin
     id 21 
     name lhand
     direction 1 -4.48966e-011 5.13905e-028   
     length 0.614516   
     axis -3.27915e-016 90 90   XYZ
    dof rx rz
    limits (-90.0 90.0)
           (-45.0 45.0)
  end
  begin
     id 22 
     name lfingers
     direction 1 -4.48979e-011 1.02781e-027   
     length 0.495439   
     axis -6.5583e-016 90 90   XYZ
    dof rx
    limits (0.0 90.0)
  end
  begin
     id 23
     name lthumb
     direction 0.707107 -6.35001e-011 0.707107   
     length 0.711354   
     axis -90 45 2.85299e-015   XYZ
    dof rx rz
    limits (-45.0 45.0)
           (-45.0 45.0)
  end
  begin
     id 24 
     name rclavicle
     direction -0.938556 0.342765 -0.0403177   
     length 3.27019  
     axis 0 0 0   XYZ 
    dof ry rz
    limits (-10.0 20.0)
           (-20.0 0.0)
  end
  begin
     id 25 
     name rhumerus
     direction -1 -4.48966e-011 2.52291e-027  
     length 5.38183   
     axis 180 30 90   XYZ
    dof rx ry rz
    limits (-90.0 60.0)
           (-90.0 90.0)
           (-90.0 90.0)
  end
  begin
     id 26 
     name rradius
     direction -1 -4.4896e-011 1.5797e-027   
     length 3.16988   
     axis 180 30 90   XYZ
    dof rx
    limits (-10.0 170.0)
  end
  begin
     id 27 
     name rwrist
     direction -1 -4.48947e-011 2.56952e-028   
     length 1.58494   
     axis -5.12785e-016 -90 -90   XYZ
    dof ry
    limits (-180.0 0.0)
  end
  begin
     id 28
     name rhand
     direction -1 -4.49098e-011 5.13905e-028   
     length 0.637679   
     axis -3.27915e-016 -90 -90   XYZ
    dof rx rz
    limits (-90.0 90.0)
           (-45.0 45.0)
  end
  begin
     id 29
     name rfingers
     direction -1 -4.49026e-011 1.02781e-027   
     length 0.514113   
     axis -6.5583e-016 -90 -90   XYZ
    dof rx
    limits (0.0 90.0)
  end
  begin
     id 30
     name rthumb
     direction -0.707107 -6.3491e-011 0.707107   
     length 0.738167   
     axis -90 -45 -2.85299e-015   XYZ
    dof rx rz
    limits (-45.0 45.0)
           (-45.0 45.0)
  end
:hierarchy
  begin
    root lhipjoint rhipjoint lowerback
    lhipjoint lfemur
    lfemur ltibia
    ltibia lfoot
    lfoot ltoes
    rhipjoint rfemur
    rfemur rtibia
    rtibia rfoot
    rfoot rtoes
    lowerback upperback
    upperback thorax
    thorax lowerneck lclavicle rclavicle
    lowerneck upperneck
    upperneck head
    lclavicle lhumerus
    lhumerus lradius
    lradius lwrist
    lwrist lhand lthumb
    lhand lfingers
    rclavicle rhumerus
    rhumerus rradius
    rradius rwrist
    rwrist rhand rthumb
    rhand rfingers
  end

#!OML:ASF H:\Swim\Project 1\Capture day 1\Session 1\swimmer.ASF
:FULLY-SPECIFIED
:DEGREES
3074
root 4.41453 12.4686 7.94677 64.602 -1.21273 -2.32894
lowerback 11.012 0.406192 -1.69349
upperback -3.85414 0.136389 -1.55402
thorax -10.3534 0.11583 -0.744961
lowerneck -19.2163 -4.48412 -9.22436
upperneck 30.3928 -6.5311 9.83904
head 14.2998 -2.54043 4.43374
rclavicle 0 1.98785e-015
rhumerus 65.6345 -0.989118 -47.009
rradius 75.2297
rwrist -75.1928
rhand -39.1399 -5.24926
rfingers 7.12502
rthumb -12.1386 -34.8771
lclavicle 0 1.98785e-015
lhumerus 68.4624 -0.886931 44.1284
lradius 74.3503
lwrist 48.908
lhand -29.9015 -333.882
lfingers 7.12502
lthumb -3.22232 -663.927
rfemur -9.25977 -7.54537 -23.9847
rtibia 115.053
rfoot -10.0925 -3.6023
rtoes -11.6099
lfemur -9.6998 9.38507 9.53122
ltibia 108.388
lfoot 7.24999 7.17246
ltoes 16.2884
3075
root 4.4129 12.4806 7.95979 65.1156 -1.23873 -2.30242
lowerback 10.6273 0.484786 -1.63694
upperback -3.705 0.252716 -1.68658
thorax -9.95981 0.162357 -0.935016
lowerneck -18.0035 -4.42506 -9.13304
upperneck 30.351 -6.49515 9.65446
head 13.9952 -2.56633 4.34896
rclavicle -8.74653e-015 7.55382e-015
rhumerus 67.4002 -1.90875 -46.7635
rradius 70.6555
rwrist -74.4125
rhand -38.1464 -4.90746
rfingers 7.12502
rthumb -11.1804 -34.5896
lclavicle -8.74653e-015 7.55382e-015
lhumerus 70.656 -0.256576 43.6094
lradius 70.1086
lwrist 48.2459
lhand -29.1708 -334.08
lfingers 7.12502
lthumb -2.51665 -664.115
rfemur -8.95307 -6.76205 -23.0496
rtibia 112.559
rfoot -10.4379 -4.69196
rtoes -11.4259
lfemur -9.04389 8.5592 9.07595
ltibia 105.93
lfoot 7.01523 7.6356
ltoes 16.2695
3076
root 4.41129 12.4913 7.97157 65.6667 -1.27742 -2.27476
lowerback 10.2873 0.563502 -1.59357
upperback -3.56717 0.365419 -1.82455
thorax -9.60609 0.208775 -1.12127
lowerneck -16.83 -4.38132 -9.00915
upperneck 30.1918 -6.47382 9.45757
head 13.6511 -2.5946 4.24791
rclavicle -3.18055e-015 1.92821e-014
rhumerus 69.1746 -2.80864 -46.4834
rradius 66.11
rwrist -73.5168
rhand -37.1115 -4.80018
rfingers 7.12502
rthumb -10.1823 -34.5338
lclavicle -3.18055e-015 1.92821e-014
lhumerus 72.8298 0.342616 43.0988
lradius 65.9156
lwrist 47.3199
lhand -28.2918 -334.099
lfingers 7.12502
lthumb -1.66772 -664.125
rfemur -8.61466 -6.04191 -22.1074
rtibia 109.811
rfoot -10.755 -5.67906
rtoes -11.3522
lfemur -8.37621 7.8113 8.56903
ltibia 103.25
lfoot 6.78804 7.97896
ltoes 16.059
3077
root 4.40974 12.5006 7.98163 66.2624 -1.31302 -2.25495
lowerback 9.98617 0.625663 -1.53841
upperback -3.43423 0.456665 -1.96075
thorax -9.28136 0.244973 -1.30713
lowerneck -15.7506 -4.34987 -8.92938
upperneck 29.9281 -6.46618 9.33923
head 13.2938 -2.6217 4.18236
rclavicle -1.19271e-015 9.74045e-015
rhumerus 70.9994 -3.7127 -46.1733
rradius 61.6261
rwrist -72.3912
rhand -36.0157 -5.13379
rfingers 7.12502
rthumb -9.12497 -34.9164
lclavicle -1.19271e-015 9.74045e-015
lhumerus 74.945 0.953559 42.5236
lradius 61.8272
lwrist 46.3093
lhand -27.4862 -334.151
lfingers 7.12502
lthumb -0.88968 -664.173
rfemur -8.25586 -5.3714 -21.1364
rtibia 106.808
rfoot -11.0465 -6.56194
rtoes -11.3687
lfemur -7.70816 7.15218 8.04471
ltibia 100.355
lfoot 6.56762 8.27164
ltoes 15.8559
3078
root 4.40805 12.5086 7.98896 66.9026 -1.34924 -2.24434
lowerback 9.73272 0.657793 -1.48433
upperback -3.30722 0.50732 -2.08171
thorax -8.9922 0.262692 -1.46852
lowerneck -14.8341 -4.32603 -8.98282
upperneck 29.6215 -6.46449 9.37254
head 12.9704 -2.64442 4.19963
rclavicle 2.46493e-014 -3.18055e-014
rhumerus 72.8908 -4.59696 -45.8351
rradius 57.2274
rwrist -70.883
rhand -34.8334 -5.97751
rfingers 7.12502
rthumb -7.98396 -35.8067
lclavicle 2.46493e-014 -3.18055e-014
lhumerus 76.9582 1.65072 41.8318
lradius 57.8551
lwrist 45.1849
lhand -26.7645 -334.232
lfingers 7.12502
lthumb -0.192659 -664.252
rfemur -7.88332 -4.74796 -20.1604
rtibia 103.555
rfoot -11.3359 -7.3568
rtoes -11.4636
lfemur -7.0487 6.58682 7.51229
ltibia 97.2615
lfoot 6.32258 8.59983
ltoes 15.8741
3079
root 4.40617 12.5155 7.99267 67.5887 -1.37781 -2.24549
lowerback 9.52395 0.645463 -1.40622
upperback -3.17693 0.501018 -2.19349
thorax -8.72693 0.25213 -1.62392
lowerneck -14.113 -4.29575 -9.1713
upperneck 29.2597 -6.45381 9.57537
head 12.6808 -2.65414 4.30657
rclavicle 6.36111e-015 -8.94531e-015
rhumerus 74.8463 -5.47858 -45.4113
rradius 52.9464
rwrist -69.0102
rhand -33.5565 -7.03154
rfingers 7.12502
rthumb -6.75141 -36.9039
lclavicle 6.36111e-015 -8.94531e-015
lhumerus 78.8393 2.49668 40.9181
lradius 54.0283
lwrist 43.9696
lhand -26.1877 -334.393
lfingers 7.12502
lthumb 0.364435 -664.414
rfemur -7.50146 -4.17212 -19.1846
rtibia 100.057
rfoot -11.65 -8.11361
rtoes -11.5768
lfemur -6.40947 6.11783 6.99016
ltibia 93.9802
lfoot 6.0277 9.03907
ltoes 16.0242
3080
root 4.404 12.5214 7.99201 68.316 -1.39363 -2.25911
lowerback 9.36241 0.585008 -1.29199
upperback -3.04406 0.433876 -2.29916
thorax -8.4882 0.210564 -1.78372
lowerneck -13.5625 -4.25534 -9.52267
upperneck 28.8129 -6.4341 9.98653
head 12.409 -2.65032 4.52061
rclavicle -9.14409e-015 1.86858e-014
rhumerus 76.8185 -6.36854 -44.8341
rradius 48.7998
rwrist -66.7416
rhand -32.2354 -8.1197
rfingers 7.12502
rthumb -5.47604 -38.0289
lclavicle -9.14409e-015 1.86858e-014
lhumerus 80.5438 3.51252 39.7026
lradius 50.3924
lwrist 42.7276
lhand -25.8132 -334.629
lfingers 7.12502
lthumb 0.726152 -664.65
rfemur -7.10728 -3.63802 -18.2142
rtibia 96.3247
rfoot -12.0331 -8.90663
rtoes -11.6001
lfemur -5.79378 5.73955 6.49189
ltibia 90.5235
lfoot 5.65374 9.64446
ltoes 16.3097
3081
root 4.40153 12.5257 7.98695 69.0807 -1.39708 -2.28359
lowerback 9.25881 0.453112 -1.1136
upperback -2.91221 0.276648 -2.41065
thorax -8.28732 0.121873 -1.97254
lowerneck -13.186 -4.17717 -9.89635
upperneck 28.2623 -6.34389 10.4176
head 12.1273 -2.61239 4.74968
rclavicle -1.19271e-015 2.68359e-014
rhumerus 78.7812 -7.22843 -44.1249
rradius 44.8489
rwrist -64.1643
rhand -30.8517 -9.18144
rfingers 7.12502
rthumb -4.13989 -39.121
lclavicle -1.19271e-015 2.68359e-014
lhumerus 82.0009 4.74993 38.1738
lradius 46.9532
lwrist 41.2509
lhand -25.3534 -334.723
lfingers 7.12502
lthumb 1.17026 -664.747
rfemur -6.69497 -3.14233 -17.2587
rtibia 92.3636
rfoot -12.5157 -9.81903
rtoes -11.4873
lfemur -5.19731 5.43877 6.01734
ltibia 86.8962
lfoot 5.17549 10.4382
ltoes 16.6749
3082
root 4.39872 12.528 7.97757 69.8768 -1.38241 -2.31663
lowerback 9.20485 0.261467 -0.864976
upperback -2.77997 0.0454678 -2.53537
thorax -8.11922 -0.00646648 -2.20466
lowerneck -12.9531 -4.07647 -10.2407
upperneck 27.6047 -6.20093 10.8108
head 11.8264 -2.54893 4.95879
rclavicle -8.74653e-015 1.53064e-014
rhumerus 80.6336 -8.08383 -43.2383
rradius 41.1738
rwrist -61.4555
rhand -29.4217 -10.1156
rfingers 7.12502
rthumb -2.759 -40.0775
lclavicle -8.74653e-015 1.53064e-014
lhumerus 83.1805 6.16832 36.319
lradius 43.7719
lwrist 39.5007
lhand -24.7646 -334.631
lfingers 7.12502
lthumb 1.73896 -664.658
rfemur -6.25319 -2.66919 -16.3098
rtibia 88.1824
rfoot -13.131 -10.916
rtoes -11.1648
lfemur -4.6177 5.19841 5.57749
ltibia 83.1118
lfoot 4.55482 11.424
ltoes 17.2217
3083
root 4.39537 12.5274 7.96446 70.7049 -1.34573 -2.35874
lowerback 9.19245 0.019833 -0.549027
upperback -2.65512 -0.246894 -2.6746
thorax -7.9895 -0.168036 -2.48202
lowerneck -12.8127 -3.95647 -10.5269
upperneck 26.8203 -6.01161 11.143
head 11.4883 -2.46295 5.13226
rclavicle -6.36111e-015 7.55382e-015
rhumerus 82.2855 -8.94296 -42.1631
rradius 37.8614
rwrist -58.766
rhand -27.9375 -10.9902
rfingers 7.12502
rthumb -1.32557 -40.9658
lclavicle -6.36111e-015 7.55382e-015
lhumerus 84.041 7.71579 34.1742
lradius 40.8998
lwrist 37.4697
lhand -23.9724 -334.363
lfingers 7.12502
lthumb 2.50403 -664.398
rfemur -5.77991 -2.20239 -15.3596
rtibia 83.7912
rfoot -13.8912 -12.2339
rtoes -10.596
lfemur -4.0488 5.00181 5.17192
ltibia 79.168
lfoot 3.81693 12.5674
ltoes 17.8887
3084
root 4.39123 12.524 7.94723 71.5616 -1.29647 -2.40532
lowerback 9.20322 -0.25429 -0.202063
upperback -2.53439 -0.580179 -2.82104
thorax -7.88513 -0.350837 -2.77918
lowerneck -12.741 -3.83215 -10.7551
upperneck 25.9172 -5.80019 11.4198
head 11.1169 -2.36481 5.26983
rclavicle -6.36111e-015 2.26615e-014
rhumerus 83.6771 -9.81558 -40.9194
rradius 34.9902
rwrist -56.2317
rhand -26.3972 -11.8431
rfingers 7.12502
rthumb 0.162106 -41.8228
lclavicle -6.36111e-015 2.26615e-014
lhumerus 84.5745 9.35287 31.8123
lradius 38.3661
lwrist 35.1112
lhand -22.8852 -333.95
lfingers 7.12502
lthumb 3.55394 -663.999
rfemur -5.27657 -1.70956 -14.4144
rtibia 79.2109
rfoot -14.8173 -13.7533
rtoes -9.7351
lfemur -3.49118 4.83375 4.78745
ltibia 75.0697
lfoot 2.99968 13.8302
ltoes 18.4937
3085
root 4.38629 12.517 7.92691 72.4497 -1.22221 -2.45719
lowerback 9.20573 -0.523783 0.153728
upperback -2.4112 -0.905592 -2.9633
thorax -7.7791 -0.529407 -3.07886
lowerneck -12.7098 -3.7304 -10.933
upperneck 24.9127 -5.61302 11.6701
head 10.7229 -2.27357 5.37931
rclavicle -1.59028e-015 -3.18055e-015
rhumerus 84.6984 -10.7891 -39.4161
rradius 32.6448
rwrist -54.0487
rhand -24.8434 -12.6885
rfingers 7.12502
rthumb 1.66283 -42.6618
lclavicle -1.59028e-015 -3.18055e-015
lhumerus 84.812 10.9951 29.2871
lradius 36.2275
lwrist 32.6662
lhand -21.7122 -333.596
lfingers 7.12502
lthumb 4.68668 -663.668
rfemur -4.74341 -1.1729 -13.4607
rtibia 74.4565
rfoot -15.9114 -15.4309
rtoes -8.5749
lfemur -2.9432 4.67871 4.43348
ltibia 70.8175
lfoot 2.1787 15.1686
ltoes 19.0175
